%TF.GenerationSoftware,KiCad,Pcbnew,8.0.7*%
%TF.CreationDate,2025-01-02T12:48:40+00:00*%
%TF.ProjectId,PNP Camera,504e5020-4361-46d6-9572-612e6b696361,rev?*%
%TF.SameCoordinates,Original*%
%TF.FileFunction,Copper,L2,Bot*%
%TF.FilePolarity,Positive*%
%FSLAX46Y46*%
G04 Gerber Fmt 4.6, Leading zero omitted, Abs format (unit mm)*
G04 Created by KiCad (PCBNEW 8.0.7) date 2025-01-02 12:48:40*
%MOMM*%
%LPD*%
G01*
G04 APERTURE LIST*
%TA.AperFunction,ComponentPad*%
%ADD10R,2.500000X2.500000*%
%TD*%
%TA.AperFunction,ComponentPad*%
%ADD11C,2.500000*%
%TD*%
%TA.AperFunction,ComponentPad*%
%ADD12C,6.000000*%
%TD*%
%TA.AperFunction,ViaPad*%
%ADD13C,0.600000*%
%TD*%
%TA.AperFunction,Conductor*%
%ADD14C,0.500000*%
%TD*%
%ADD15C,0.300000*%
%ADD16C,0.350000*%
G04 APERTURE END LIST*
D10*
%TO.P,J1,1,Pin_1*%
%TO.N,VCC*%
X152175000Y-54205000D03*
D11*
%TO.P,J1,2,Pin_2*%
%TO.N,GND*%
X152175000Y-59285000D03*
%TD*%
D12*
%TO.P,,1*%
%TO.N,N/C*%
X109000000Y-56000000D03*
%TD*%
%TO.P,,1*%
%TO.N,N/C*%
X109000000Y-81000000D03*
%TD*%
%TO.P,,1*%
%TO.N,N/C*%
X133000000Y-56000000D03*
%TD*%
%TO.P,,1*%
%TO.N,N/C*%
X133000000Y-81000000D03*
%TD*%
%TO.P,,1*%
%TO.N,N/C*%
X157500000Y-92500000D03*
%TD*%
%TO.P,,1*%
%TO.N,N/C*%
X157500000Y-44500000D03*
%TD*%
%TO.P,,1*%
%TO.N,N/C*%
X84500000Y-92500000D03*
%TD*%
%TO.P,REF\u002A\u002A,1*%
%TO.N,N/C*%
X84500000Y-44500000D03*
%TD*%
D13*
%TO.N,VCC*%
X144950000Y-62000000D03*
X145550000Y-62000000D03*
%TO.N,GND*%
X153775000Y-68500000D03*
X154375000Y-68500000D03*
X130275000Y-68500000D03*
X129675000Y-68500000D03*
%TD*%
D14*
%TO.N,VCC*%
X145550000Y-62000000D02*
X146125000Y-62000000D01*
X146125000Y-62000000D02*
X148100000Y-60025000D01*
X148100000Y-60025000D02*
X148100000Y-55687500D01*
X148100000Y-55687500D02*
X149582500Y-54205000D01*
X149582500Y-54205000D02*
X152175000Y-54205000D01*
X144950000Y-62000000D02*
X145550000Y-62000000D01*
%TO.N,GND*%
X153775000Y-68500000D02*
X154375000Y-68500000D01*
X130275000Y-68500000D02*
X153775000Y-68500000D01*
X129675000Y-68500000D02*
X130275000Y-68500000D01*
%TD*%
D15*
X144950000Y-62000000D03*
X145550000Y-62000000D03*
X153775000Y-68500000D03*
X154375000Y-68500000D03*
X130275000Y-68500000D03*
X129675000Y-68500000D03*
D16*
X152175000Y-54205000D03*
X152175000Y-59285000D03*
X109000000Y-56000000D03*
X109000000Y-81000000D03*
X133000000Y-56000000D03*
X133000000Y-81000000D03*
X157500000Y-92500000D03*
X157500000Y-44500000D03*
X84500000Y-92500000D03*
X84500000Y-44500000D03*
M02*
