%TF.GenerationSoftware,KiCad,Pcbnew,8.0.7*%
%TF.CreationDate,2025-01-02T12:48:40+00:00*%
%TF.ProjectId,PNP Camera,504e5020-4361-46d6-9572-612e6b696361,rev?*%
%TF.SameCoordinates,Original*%
%TF.FileFunction,Copper,L1,Top*%
%TF.FilePolarity,Positive*%
%FSLAX46Y46*%
G04 Gerber Fmt 4.6, Leading zero omitted, Abs format (unit mm)*
G04 Created by KiCad (PCBNEW 8.0.7) date 2025-01-02 12:48:40*
%MOMM*%
%LPD*%
G01*
G04 APERTURE LIST*
G04 Aperture macros list*
%AMRoundRect*
0 Rectangle with rounded corners*
0 $1 Rounding radius*
0 $2 $3 $4 $5 $6 $7 $8 $9 X,Y pos of 4 corners*
0 Add a 4 corners polygon primitive as box body*
4,1,4,$2,$3,$4,$5,$6,$7,$8,$9,$2,$3,0*
0 Add four circle primitives for the rounded corners*
1,1,$1+$1,$2,$3*
1,1,$1+$1,$4,$5*
1,1,$1+$1,$6,$7*
1,1,$1+$1,$8,$9*
0 Add four rect primitives between the rounded corners*
20,1,$1+$1,$2,$3,$4,$5,0*
20,1,$1+$1,$4,$5,$6,$7,0*
20,1,$1+$1,$6,$7,$8,$9,0*
20,1,$1+$1,$8,$9,$2,$3,0*%
G04 Aperture macros list end*
%TA.AperFunction,NonConductor*%
%ADD10C,0.500000*%
%TD*%
%TA.AperFunction,Conductor*%
%ADD11C,0.500000*%
%TD*%
%TA.AperFunction,Conductor*%
%ADD12C,0.200000*%
%TD*%
%TA.AperFunction,NonConductor*%
%ADD13C,0.200000*%
%TD*%
%TA.AperFunction,ComponentPad*%
%ADD14R,2.500000X2.500000*%
%TD*%
%TA.AperFunction,ComponentPad*%
%ADD15C,2.500000*%
%TD*%
%TA.AperFunction,SMDPad,CuDef*%
%ADD16RoundRect,0.250000X0.503814X0.132583X0.132583X0.503814X-0.503814X-0.132583X-0.132583X-0.503814X0*%
%TD*%
%TA.AperFunction,SMDPad,CuDef*%
%ADD17RoundRect,0.250000X-0.132583X0.503814X-0.503814X0.132583X0.132583X-0.503814X0.503814X-0.132583X0*%
%TD*%
%TA.AperFunction,SMDPad,CuDef*%
%ADD18RoundRect,0.250000X-0.503814X-0.132583X-0.132583X-0.503814X0.503814X0.132583X0.132583X0.503814X0*%
%TD*%
%TA.AperFunction,SMDPad,CuDef*%
%ADD19RoundRect,0.250000X0.132583X-0.503814X0.503814X-0.132583X-0.132583X0.503814X-0.503814X0.132583X0*%
%TD*%
%TA.AperFunction,SMDPad,CuDef*%
%ADD20RoundRect,0.250000X0.450000X-0.262500X0.450000X0.262500X-0.450000X0.262500X-0.450000X-0.262500X0*%
%TD*%
%TA.AperFunction,SMDPad,CuDef*%
%ADD21RoundRect,0.250000X-0.450000X0.262500X-0.450000X-0.262500X0.450000X-0.262500X0.450000X0.262500X0*%
%TD*%
%TA.AperFunction,SMDPad,CuDef*%
%ADD22RoundRect,0.250000X0.262500X0.450000X-0.262500X0.450000X-0.262500X-0.450000X0.262500X-0.450000X0*%
%TD*%
%TA.AperFunction,SMDPad,CuDef*%
%ADD23RoundRect,0.243750X0.150260X-0.494975X0.494975X-0.150260X-0.150260X0.494975X-0.494975X0.150260X0*%
%TD*%
%TA.AperFunction,SMDPad,CuDef*%
%ADD24RoundRect,0.243750X-0.494975X-0.150260X-0.150260X-0.494975X0.494975X0.150260X0.150260X0.494975X0*%
%TD*%
%TA.AperFunction,SMDPad,CuDef*%
%ADD25RoundRect,0.243750X0.494975X0.150260X0.150260X0.494975X-0.494975X-0.150260X-0.150260X-0.494975X0*%
%TD*%
%TA.AperFunction,SMDPad,CuDef*%
%ADD26RoundRect,0.243750X-0.150260X0.494975X-0.494975X0.150260X0.150260X-0.494975X0.494975X-0.150260X0*%
%TD*%
%TA.AperFunction,SMDPad,CuDef*%
%ADD27RoundRect,0.243750X-0.456250X0.243750X-0.456250X-0.243750X0.456250X-0.243750X0.456250X0.243750X0*%
%TD*%
%TA.AperFunction,SMDPad,CuDef*%
%ADD28RoundRect,0.243750X0.456250X-0.243750X0.456250X0.243750X-0.456250X0.243750X-0.456250X-0.243750X0*%
%TD*%
%TA.AperFunction,SMDPad,CuDef*%
%ADD29RoundRect,0.243750X-0.243750X-0.456250X0.243750X-0.456250X0.243750X0.456250X-0.243750X0.456250X0*%
%TD*%
%TA.AperFunction,SMDPad,CuDef*%
%ADD30RoundRect,0.243750X0.243750X0.456250X-0.243750X0.456250X-0.243750X-0.456250X0.243750X-0.456250X0*%
%TD*%
%TA.AperFunction,SMDPad,CuDef*%
%ADD31RoundRect,0.250000X-0.262500X-0.450000X0.262500X-0.450000X0.262500X0.450000X-0.262500X0.450000X0*%
%TD*%
%TA.AperFunction,ComponentPad*%
%ADD32C,6.000000*%
%TD*%
%TA.AperFunction,ViaPad*%
%ADD33C,0.600000*%
%TD*%
%ADD34C,0.300000*%
%ADD35C,0.350000*%
G04 APERTURE END LIST*
D10*
X117000000Y-94000000D02*
X98292893Y-91207107D01*
D11*
%TO.N,GND*%
X143707107Y-45792893D02*
X125000000Y-43000000D01*
D10*
X98321030Y-91207107D02*
G75*
G02*
X98321030Y-45792893I22707106J22707107D01*
G01*
D11*
X143707107Y-45792893D02*
G75*
G02*
X143707107Y-91207107I-22707107J-22707107D01*
G01*
D12*
%TO.N,VCC*%
X121000000Y-42926187D02*
X121000000Y-45494566D01*
X103607107Y-51107107D02*
X104675000Y-52150000D01*
X96426185Y-68500002D02*
X97994566Y-68500000D01*
X103607107Y-85892893D02*
X104650000Y-84925000D01*
X121000000Y-94073817D02*
X121000000Y-91505434D01*
X138392893Y-85892893D02*
X137200000Y-84700000D01*
X145573815Y-68500002D02*
X144005434Y-68500000D01*
X138392893Y-51107107D02*
X137300000Y-52225000D01*
D13*
X121000001Y-40937501D02*
X125000000Y-41000000D01*
X102192893Y-49692893D02*
X99550000Y-47100000D01*
X94426185Y-68500002D02*
X91075000Y-68500000D01*
X102192893Y-87307107D02*
X99550000Y-89950000D01*
X121000000Y-96000002D02*
X117000000Y-96000000D01*
X139900000Y-87400000D02*
X142200000Y-89700000D01*
D12*
%TO.N,GND*%
X147573815Y-68500002D02*
X151100000Y-68500000D01*
D13*
X139807107Y-49692893D02*
X142400000Y-47100000D01*
D12*
%TO.N,VCC*%
X134000000Y-62000000D02*
X143000000Y-62000000D01*
X121000000Y-50912500D02*
X121000000Y-45494566D01*
X108000000Y-62000000D02*
X99000000Y-62000000D01*
X104000000Y-68500000D02*
X97994566Y-68500000D01*
X108000000Y-75000000D02*
X99000000Y-75000000D01*
X121000000Y-85912500D02*
X121000000Y-91505434D01*
X134087500Y-75000000D02*
X143000000Y-75000000D01*
X138087500Y-68500000D02*
X144005434Y-68500000D01*
D11*
X144005434Y-68500000D02*
G75*
G02*
X97994566Y-68500000I-23005434J0D01*
G01*
X97994566Y-68500000D02*
G75*
G02*
X144005434Y-68500000I23005434J0D01*
G01*
D13*
X121000000Y-56432028D02*
X121000000Y-52912500D01*
X110000000Y-62000000D02*
X112492893Y-59992893D01*
X108932028Y-68500000D02*
X106000000Y-68500000D01*
X112492893Y-77007107D02*
X110000000Y-75000000D01*
X121000000Y-80567973D02*
X121000000Y-83912500D01*
X132087500Y-75000000D02*
X129507107Y-77007107D01*
X133067973Y-68500000D02*
X136087500Y-68500000D01*
D12*
%TO.N,Net-(D1-A)*%
X132000000Y-62000000D02*
X129527107Y-59962893D01*
D11*
%TO.N,GND*%
X131067235Y-68500000D02*
G75*
G02*
X110932765Y-68500000I-10067235J0D01*
G01*
X110932765Y-68500000D02*
G75*
G02*
X131067235Y-68500000I10067235J0D01*
G01*
%TD*%
D14*
%TO.P,J1,1,Pin_1*%
%TO.N,VCC*%
X152175000Y-54205000D03*
D15*
%TO.P,J1,2,Pin_2*%
%TO.N,GND*%
X152175000Y-59285000D03*
%TD*%
D16*
%TO.P,R1,1*%
%TO.N,N/C*%
X103545235Y-51045235D03*
%TO.P,R1,2*%
X102254765Y-49754765D03*
%TD*%
D17*
%TO.P,R1,1*%
%TO.N,N/C*%
X103545235Y-85954765D03*
%TO.P,R1,2*%
X102254765Y-87245235D03*
%TD*%
D18*
%TO.P,R1,1*%
%TO.N,N/C*%
X138454765Y-85954765D03*
%TO.P,R1,2*%
X139745235Y-87245235D03*
%TD*%
D19*
%TO.P,R1,1*%
%TO.N,N/C*%
X138454765Y-51045235D03*
%TO.P,R1,2*%
X139745235Y-49754765D03*
%TD*%
D20*
%TO.P,R1,1*%
%TO.N,N/C*%
X125000000Y-42912500D03*
%TO.P,R1,2*%
X125000000Y-41087500D03*
%TD*%
D21*
%TO.P,R1,1*%
%TO.N,N/C*%
X117000000Y-94087500D03*
%TO.P,R1,2*%
X117000000Y-95912500D03*
%TD*%
D22*
%TO.P,R1,1*%
%TO.N,N/C*%
X96338685Y-68500002D03*
%TO.P,R1,2*%
X94513685Y-68500002D03*
%TD*%
%TO.P,R1,1*%
%TO.N,N/C*%
X147486315Y-68500002D03*
%TO.P,R1,2*%
X145661315Y-68500002D03*
%TD*%
D23*
%TO.P,D1,1,K*%
%TO.N,N/C*%
X98337087Y-91162914D03*
%TO.P,D1,2,A*%
X99662913Y-89837086D03*
%TD*%
D24*
%TO.P,D1,1,K*%
%TO.N,N/C*%
X98337086Y-45837087D03*
%TO.P,D1,2,A*%
X99662914Y-47162913D03*
%TD*%
D25*
%TO.P,D1,1,K*%
%TO.N,N/C*%
X143662914Y-91162913D03*
%TO.P,D1,2,A*%
X142337086Y-89837087D03*
%TD*%
D26*
%TO.P,D1,1,K*%
%TO.N,N/C*%
X143662913Y-45837086D03*
%TO.P,D1,2,A*%
X142337087Y-47162914D03*
%TD*%
D27*
%TO.P,D1,1,K*%
%TO.N,N/C*%
X121000000Y-41000000D03*
%TO.P,D1,2,A*%
X121000002Y-42875002D03*
%TD*%
D28*
%TO.P,D1,1,K*%
%TO.N,N/C*%
X121000001Y-95937502D03*
%TO.P,D1,2,A*%
X120999999Y-94062500D03*
%TD*%
D29*
%TO.P,D1,1,K*%
%TO.N,N/C*%
X88977937Y-68500001D03*
%TO.P,D1,2,A*%
X90852939Y-68499999D03*
%TD*%
D30*
%TO.P,D1,1,K*%
%TO.N,GND*%
X153022063Y-68499999D03*
%TO.P,D1,2,A*%
%TO.N,N/C*%
X151147061Y-68500001D03*
%TD*%
D22*
%TO.P,R1,1*%
%TO.N,N/C*%
X109912500Y-75000000D03*
%TO.P,R1,2*%
X108087500Y-75000000D03*
%TD*%
D20*
%TO.P,R1,1*%
%TO.N,N/C*%
X121000000Y-52825000D03*
%TO.P,R1,2*%
X121000000Y-51000000D03*
%TD*%
D22*
%TO.P,R1,1*%
%TO.N,N/C*%
X109912500Y-62000000D03*
%TO.P,R1,2*%
X108087500Y-62000000D03*
%TD*%
%TO.P,R1,1*%
%TO.N,N/C*%
X105912500Y-68500000D03*
%TO.P,R1,2*%
X104087500Y-68500000D03*
%TD*%
D21*
%TO.P,R1,1*%
%TO.N,N/C*%
X121000000Y-84000000D03*
%TO.P,R1,2*%
X121000000Y-85825000D03*
%TD*%
D31*
%TO.P,R1,1*%
%TO.N,N/C*%
X132175000Y-75000000D03*
%TO.P,R1,2*%
X134000000Y-75000000D03*
%TD*%
%TO.P,R1,1*%
%TO.N,N/C*%
X136175000Y-68500000D03*
%TO.P,R1,2*%
X138000000Y-68500000D03*
%TD*%
%TO.P,R1,1*%
%TO.N,Net-(D1-A)*%
X132087500Y-62000000D03*
%TO.P,R1,2*%
%TO.N,VCC*%
X133912500Y-62000000D03*
%TD*%
D28*
%TO.P,D1,1,K*%
%TO.N,N/C*%
X121000001Y-58369529D03*
%TO.P,D1,2,A*%
X120999999Y-56494527D03*
%TD*%
D25*
%TO.P,D1,1,K*%
%TO.N,N/C*%
X113862914Y-61362913D03*
%TO.P,D1,2,A*%
X112537086Y-60037087D03*
%TD*%
D30*
%TO.P,D1,1,K*%
%TO.N,N/C*%
X110869529Y-68499999D03*
%TO.P,D1,2,A*%
X108994527Y-68500001D03*
%TD*%
D26*
%TO.P,D1,1,K*%
%TO.N,N/C*%
X113862913Y-75637086D03*
%TO.P,D1,2,A*%
X112537087Y-76962914D03*
%TD*%
D27*
%TO.P,D1,1,K*%
%TO.N,N/C*%
X120999999Y-78630471D03*
%TO.P,D1,2,A*%
X121000001Y-80505473D03*
%TD*%
D24*
%TO.P,D1,1,K*%
%TO.N,N/C*%
X128137086Y-75637087D03*
%TO.P,D1,2,A*%
X129462914Y-76962913D03*
%TD*%
D29*
%TO.P,D1,1,K*%
%TO.N,GND*%
X131130471Y-68500001D03*
%TO.P,D1,2,A*%
%TO.N,N/C*%
X133005473Y-68499999D03*
%TD*%
D23*
%TO.P,D1,1,K*%
%TO.N,GND*%
X128157088Y-61332914D03*
%TO.P,D1,2,A*%
%TO.N,Net-(D1-A)*%
X129482912Y-60007086D03*
%TD*%
D32*
%TO.P,,1*%
%TO.N,N/C*%
X109000000Y-56000000D03*
%TD*%
%TO.P,,1*%
%TO.N,N/C*%
X109000000Y-81000000D03*
%TD*%
%TO.P,,1*%
%TO.N,N/C*%
X133000000Y-56000000D03*
%TD*%
%TO.P,,1*%
%TO.N,N/C*%
X133000000Y-81000000D03*
%TD*%
%TO.P,,1*%
%TO.N,N/C*%
X157500000Y-92500000D03*
%TD*%
%TO.P,,1*%
%TO.N,N/C*%
X157500000Y-44500000D03*
%TD*%
%TO.P,,1*%
%TO.N,N/C*%
X84500000Y-92500000D03*
%TD*%
%TO.P,REF\u002A\u002A,1*%
%TO.N,N/C*%
X84500000Y-44500000D03*
%TD*%
D33*
%TO.N,VCC*%
X144950000Y-62000000D03*
X145550000Y-62000000D03*
%TO.N,GND*%
X153775000Y-68500000D03*
X154375000Y-68500000D03*
X130275000Y-68500000D03*
X129675000Y-68500000D03*
%TD*%
D11*
%TO.N,VCC*%
X143000000Y-62000000D02*
X144950000Y-62000000D01*
%TO.N,GND*%
X153775000Y-68500000D02*
X153022064Y-68500000D01*
X153022064Y-68500000D02*
X153022063Y-68499999D01*
X154375000Y-68500000D02*
X153959563Y-68500000D01*
X130275000Y-68500000D02*
X131130470Y-68500000D01*
D12*
X131130470Y-68500000D02*
X131130471Y-68500001D01*
%TD*%
D34*
X144950000Y-62000000D03*
X145550000Y-62000000D03*
X153775000Y-68500000D03*
X154375000Y-68500000D03*
X130275000Y-68500000D03*
X129675000Y-68500000D03*
D35*
X152175000Y-54205000D03*
X152175000Y-59285000D03*
X109000000Y-56000000D03*
X109000000Y-81000000D03*
X133000000Y-56000000D03*
X133000000Y-81000000D03*
X157500000Y-92500000D03*
X157500000Y-44500000D03*
X84500000Y-92500000D03*
X84500000Y-44500000D03*
M02*
