%TF.GenerationSoftware,KiCad,Pcbnew,8.0.7*%
%TF.CreationDate,2025-01-02T12:48:39+00:00*%
%TF.ProjectId,PNP Camera,504e5020-4361-46d6-9572-612e6b696361,rev?*%
%TF.SameCoordinates,Original*%
%TF.FileFunction,Soldermask,Top*%
%TF.FilePolarity,Negative*%
%FSLAX46Y46*%
G04 Gerber Fmt 4.6, Leading zero omitted, Abs format (unit mm)*
G04 Created by KiCad (PCBNEW 8.0.7) date 2025-01-02 12:48:39*
%MOMM*%
%LPD*%
G01*
G04 APERTURE LIST*
G04 Aperture macros list*
%AMRoundRect*
0 Rectangle with rounded corners*
0 $1 Rounding radius*
0 $2 $3 $4 $5 $6 $7 $8 $9 X,Y pos of 4 corners*
0 Add a 4 corners polygon primitive as box body*
4,1,4,$2,$3,$4,$5,$6,$7,$8,$9,$2,$3,0*
0 Add four circle primitives for the rounded corners*
1,1,$1+$1,$2,$3*
1,1,$1+$1,$4,$5*
1,1,$1+$1,$6,$7*
1,1,$1+$1,$8,$9*
0 Add four rect primitives between the rounded corners*
20,1,$1+$1,$2,$3,$4,$5,0*
20,1,$1+$1,$4,$5,$6,$7,0*
20,1,$1+$1,$6,$7,$8,$9,0*
20,1,$1+$1,$8,$9,$2,$3,0*%
G04 Aperture macros list end*
%ADD10R,2.500000X2.500000*%
%ADD11C,2.500000*%
%ADD12RoundRect,0.250000X0.503814X0.132583X0.132583X0.503814X-0.503814X-0.132583X-0.132583X-0.503814X0*%
%ADD13RoundRect,0.250000X-0.132583X0.503814X-0.503814X0.132583X0.132583X-0.503814X0.503814X-0.132583X0*%
%ADD14RoundRect,0.250000X-0.503814X-0.132583X-0.132583X-0.503814X0.503814X0.132583X0.132583X0.503814X0*%
%ADD15RoundRect,0.250000X0.132583X-0.503814X0.503814X-0.132583X-0.132583X0.503814X-0.503814X0.132583X0*%
%ADD16RoundRect,0.250000X0.450000X-0.262500X0.450000X0.262500X-0.450000X0.262500X-0.450000X-0.262500X0*%
%ADD17RoundRect,0.250000X-0.450000X0.262500X-0.450000X-0.262500X0.450000X-0.262500X0.450000X0.262500X0*%
%ADD18RoundRect,0.250000X0.262500X0.450000X-0.262500X0.450000X-0.262500X-0.450000X0.262500X-0.450000X0*%
%ADD19RoundRect,0.243750X0.150260X-0.494975X0.494975X-0.150260X-0.150260X0.494975X-0.494975X0.150260X0*%
%ADD20RoundRect,0.243750X-0.494975X-0.150260X-0.150260X-0.494975X0.494975X0.150260X0.150260X0.494975X0*%
%ADD21RoundRect,0.243750X0.494975X0.150260X0.150260X0.494975X-0.494975X-0.150260X-0.150260X-0.494975X0*%
%ADD22RoundRect,0.243750X-0.150260X0.494975X-0.494975X0.150260X0.150260X-0.494975X0.494975X-0.150260X0*%
%ADD23RoundRect,0.243750X-0.456250X0.243750X-0.456250X-0.243750X0.456250X-0.243750X0.456250X0.243750X0*%
%ADD24RoundRect,0.243750X0.456250X-0.243750X0.456250X0.243750X-0.456250X0.243750X-0.456250X-0.243750X0*%
%ADD25RoundRect,0.243750X-0.243750X-0.456250X0.243750X-0.456250X0.243750X0.456250X-0.243750X0.456250X0*%
%ADD26RoundRect,0.243750X0.243750X0.456250X-0.243750X0.456250X-0.243750X-0.456250X0.243750X-0.456250X0*%
%ADD27RoundRect,0.250000X-0.262500X-0.450000X0.262500X-0.450000X0.262500X0.450000X-0.262500X0.450000X0*%
%ADD28C,6.000000*%
G04 APERTURE END LIST*
D10*
%TO.C,J1*%
X152175000Y-54205000D03*
D11*
X152175000Y-59285000D03*
%TD*%
D12*
%TO.C,R1*%
X103545235Y-51045235D03*
X102254765Y-49754765D03*
%TD*%
D13*
%TO.C,R1*%
X103545235Y-85954765D03*
X102254765Y-87245235D03*
%TD*%
D14*
%TO.C,R1*%
X138454765Y-85954765D03*
X139745235Y-87245235D03*
%TD*%
D15*
%TO.C,R1*%
X138454765Y-51045235D03*
X139745235Y-49754765D03*
%TD*%
D16*
%TO.C,R1*%
X125000000Y-42912500D03*
X125000000Y-41087500D03*
%TD*%
D17*
%TO.C,R1*%
X117000000Y-94087500D03*
X117000000Y-95912500D03*
%TD*%
D18*
%TO.C,R1*%
X96338685Y-68500002D03*
X94513685Y-68500002D03*
%TD*%
%TO.C,R1*%
X147486315Y-68500002D03*
X145661315Y-68500002D03*
%TD*%
D19*
%TO.C,D1*%
X98337087Y-91162914D03*
X99662913Y-89837086D03*
%TD*%
D20*
%TO.C,D1*%
X98337086Y-45837087D03*
X99662914Y-47162913D03*
%TD*%
D21*
%TO.C,D1*%
X143662914Y-91162913D03*
X142337086Y-89837087D03*
%TD*%
D22*
%TO.C,D1*%
X143662913Y-45837086D03*
X142337087Y-47162914D03*
%TD*%
D23*
%TO.C,D1*%
X121000000Y-41000000D03*
X121000002Y-42875002D03*
%TD*%
D24*
%TO.C,D1*%
X121000001Y-95937502D03*
X120999999Y-94062500D03*
%TD*%
D25*
%TO.C,D1*%
X88977937Y-68500001D03*
X90852939Y-68499999D03*
%TD*%
D26*
%TO.C,D1*%
X153022063Y-68499999D03*
X151147061Y-68500001D03*
%TD*%
D18*
%TO.C,R1*%
X109912500Y-75000000D03*
X108087500Y-75000000D03*
%TD*%
D16*
%TO.C,R1*%
X121000000Y-52825000D03*
X121000000Y-51000000D03*
%TD*%
D18*
%TO.C,R1*%
X109912500Y-62000000D03*
X108087500Y-62000000D03*
%TD*%
%TO.C,R1*%
X105912500Y-68500000D03*
X104087500Y-68500000D03*
%TD*%
D17*
%TO.C,R1*%
X121000000Y-84000000D03*
X121000000Y-85825000D03*
%TD*%
D27*
%TO.C,R1*%
X132175000Y-75000000D03*
X134000000Y-75000000D03*
%TD*%
%TO.C,R1*%
X136175000Y-68500000D03*
X138000000Y-68500000D03*
%TD*%
%TO.C,R1*%
X132087500Y-62000000D03*
X133912500Y-62000000D03*
%TD*%
D24*
%TO.C,D1*%
X121000001Y-58369529D03*
X120999999Y-56494527D03*
%TD*%
D21*
%TO.C,D1*%
X113862914Y-61362913D03*
X112537086Y-60037087D03*
%TD*%
D26*
%TO.C,D1*%
X110869529Y-68499999D03*
X108994527Y-68500001D03*
%TD*%
D22*
%TO.C,D1*%
X113862913Y-75637086D03*
X112537087Y-76962914D03*
%TD*%
D23*
%TO.C,D1*%
X120999999Y-78630471D03*
X121000001Y-80505473D03*
%TD*%
D20*
%TO.C,D1*%
X128137086Y-75637087D03*
X129462914Y-76962913D03*
%TD*%
D25*
%TO.C,D1*%
X131130471Y-68500001D03*
X133005473Y-68499999D03*
%TD*%
D19*
%TO.C,D1*%
X128157088Y-61332914D03*
X129482912Y-60007086D03*
%TD*%
D28*
%TO.C,*%
X109000000Y-56000000D03*
%TD*%
%TO.C,*%
X109000000Y-81000000D03*
%TD*%
%TO.C,*%
X133000000Y-56000000D03*
%TD*%
%TO.C,*%
X133000000Y-81000000D03*
%TD*%
%TO.C,*%
X157500000Y-92500000D03*
%TD*%
%TO.C,*%
X157500000Y-44500000D03*
%TD*%
%TO.C,*%
X84500000Y-92500000D03*
%TD*%
%TO.C,REF\u002A\u002A*%
X84500000Y-44500000D03*
%TD*%
M02*
